G04 #@! TF.FileFunction,Soldermask,Top*
%FSLAX46Y46*%
G04 Gerber Fmt 4.6, Leading zero omitted, Abs format (unit mm)*
G04 Created by KiCad (PCBNEW 4.0.7) date 11/12/18 06:30:44*
%MOMM*%
%LPD*%
G01*
G04 APERTURE LIST*
%ADD10C,0.100000*%
%ADD11R,2.200000X3.000000*%
%ADD12O,2.200000X3.000000*%
%ADD13C,5.400000*%
%ADD14C,2.000000*%
%ADD15O,2.000000X2.000000*%
%ADD16R,2.100000X2.100000*%
%ADD17O,2.100000X2.100000*%
%ADD18R,2.398980X2.398980*%
%ADD19C,2.020000*%
%ADD20C,2.400000*%
%ADD21R,2.400000X4.200000*%
%ADD22R,2.400000X1.900000*%
%ADD23R,0.700000X2.000000*%
%ADD24R,1.950000X1.000000*%
%ADD25R,1.900000X1.000000*%
%ADD26R,1.800000X0.700000*%
%ADD27R,6.000700X2.500580*%
%ADD28R,1.500000X2.550000*%
%ADD29R,2.000000X2.000000*%
%ADD30R,1.800000X2.100000*%
%ADD31C,1.800000*%
%ADD32O,1.800000X1.800000*%
%ADD33C,6.000000*%
%ADD34R,1.150000X1.600000*%
%ADD35R,4.150000X3.100000*%
%ADD36R,2.100000X1.800000*%
G04 APERTURE END LIST*
D10*
D11*
X110000000Y-50000000D03*
D12*
X112540000Y-50000000D03*
X115080000Y-50000000D03*
X117620000Y-50000000D03*
X120160000Y-50000000D03*
X122700000Y-50000000D03*
X125240000Y-50000000D03*
X127780000Y-50000000D03*
X130320000Y-50000000D03*
X132860000Y-50000000D03*
X135400000Y-50000000D03*
X137940000Y-50000000D03*
X140480000Y-50000000D03*
X143020000Y-50000000D03*
X145560000Y-50000000D03*
X148100000Y-50000000D03*
D13*
X104500900Y-50000000D03*
X104500900Y-81000700D03*
X179499480Y-81000700D03*
X179500000Y-50000000D03*
D14*
X125050000Y-66850000D03*
D15*
X125050000Y-77010000D03*
D16*
X143000000Y-44500000D03*
D17*
X143000000Y-41960000D03*
X140460000Y-44500000D03*
X140460000Y-41960000D03*
X137920000Y-44500000D03*
X137920000Y-41960000D03*
D10*
G36*
X158563060Y-55750550D02*
X158563060Y-60049450D01*
X154662940Y-58949630D01*
X154662940Y-56850370D01*
X158563060Y-55750550D01*
X158563060Y-55750550D01*
G37*
G36*
X149836940Y-60049450D02*
X149836940Y-55750550D01*
X153737060Y-56850370D01*
X153737060Y-58949630D01*
X149836940Y-60049450D01*
X149836940Y-60049450D01*
G37*
D18*
X159701640Y-57900000D03*
X148698360Y-57900000D03*
D10*
G36*
X153907500Y-57250000D02*
X153907500Y-58550000D01*
X153332500Y-58550000D01*
X153332500Y-57250000D01*
X153907500Y-57250000D01*
X153907500Y-57250000D01*
G37*
G36*
X155067500Y-57250000D02*
X155067500Y-58550000D01*
X154492500Y-58550000D01*
X154492500Y-57250000D01*
X155067500Y-57250000D01*
X155067500Y-57250000D01*
G37*
D19*
X113000000Y-40750000D03*
X118000000Y-43250000D03*
X113000000Y-45750000D03*
D20*
X170000000Y-86000000D03*
X170000000Y-90500000D03*
X163500000Y-86000000D03*
X163500000Y-90500000D03*
X160000000Y-86000000D03*
X160000000Y-90500000D03*
X153500000Y-86000000D03*
X153500000Y-90500000D03*
X150000000Y-86000000D03*
X150000000Y-90500000D03*
X143500000Y-86000000D03*
X143500000Y-90500000D03*
X140000000Y-86000000D03*
X140000000Y-90500000D03*
X133500000Y-86000000D03*
X133500000Y-90500000D03*
X130000000Y-86000000D03*
X130000000Y-90500000D03*
X123500000Y-86000000D03*
X123500000Y-90500000D03*
X120000000Y-86000000D03*
X120000000Y-90500000D03*
X113500000Y-86000000D03*
X113500000Y-90500000D03*
D21*
X170250000Y-43500000D03*
D22*
X163950000Y-43500000D03*
X163950000Y-45800000D03*
X163950000Y-41200000D03*
D21*
X159450000Y-43500000D03*
D22*
X153150000Y-43500000D03*
X153150000Y-45800000D03*
X153150000Y-41200000D03*
D23*
X140975000Y-76300000D03*
X140325000Y-76300000D03*
X139675000Y-76300000D03*
X139025000Y-76300000D03*
X139025000Y-79700000D03*
X139675000Y-79700000D03*
X140325000Y-79700000D03*
X140975000Y-79700000D03*
D24*
X119400000Y-74605000D03*
X119400000Y-73335000D03*
X119400000Y-72065000D03*
X119400000Y-70795000D03*
X114000000Y-70795000D03*
X114000000Y-72065000D03*
X114000000Y-73335000D03*
X114000000Y-74605000D03*
D25*
X173300000Y-91755000D03*
X173300000Y-93025000D03*
X173300000Y-94295000D03*
X173300000Y-95565000D03*
X173300000Y-96835000D03*
X173300000Y-98105000D03*
X173300000Y-99375000D03*
X173300000Y-100645000D03*
X178700000Y-100645000D03*
X178700000Y-99375000D03*
X178700000Y-98105000D03*
X178700000Y-96835000D03*
X178700000Y-95565000D03*
X178700000Y-94295000D03*
X178700000Y-93025000D03*
X178700000Y-91755000D03*
D26*
X115200000Y-97000000D03*
X115200000Y-96500000D03*
X115200000Y-96000000D03*
X115200000Y-95500000D03*
X115200000Y-95000000D03*
X110800000Y-95000000D03*
X110800000Y-95500000D03*
X110800000Y-96000000D03*
X110800000Y-96500000D03*
X110800000Y-97000000D03*
D27*
X114651140Y-55800000D03*
X124348860Y-55800000D03*
X129848860Y-96000000D03*
X120151140Y-96000000D03*
D10*
G36*
X160050550Y-71836940D02*
X164349450Y-71836940D01*
X163249630Y-75737060D01*
X161150370Y-75737060D01*
X160050550Y-71836940D01*
X160050550Y-71836940D01*
G37*
G36*
X164349450Y-80563060D02*
X160050550Y-80563060D01*
X161150370Y-76662940D01*
X163249630Y-76662940D01*
X164349450Y-80563060D01*
X164349450Y-80563060D01*
G37*
D18*
X162200000Y-70698360D03*
X162200000Y-81701640D03*
D10*
G36*
X161550000Y-76492500D02*
X162850000Y-76492500D01*
X162850000Y-77067500D01*
X161550000Y-77067500D01*
X161550000Y-76492500D01*
X161550000Y-76492500D01*
G37*
G36*
X161550000Y-75332500D02*
X162850000Y-75332500D01*
X162850000Y-75907500D01*
X161550000Y-75907500D01*
X161550000Y-75332500D01*
X161550000Y-75332500D01*
G37*
G36*
X119963060Y-79950550D02*
X119963060Y-84249450D01*
X116062940Y-83149630D01*
X116062940Y-81050370D01*
X119963060Y-79950550D01*
X119963060Y-79950550D01*
G37*
G36*
X111236940Y-84249450D02*
X111236940Y-79950550D01*
X115137060Y-81050370D01*
X115137060Y-83149630D01*
X111236940Y-84249450D01*
X111236940Y-84249450D01*
G37*
D18*
X121101640Y-82100000D03*
X110098360Y-82100000D03*
D10*
G36*
X115307500Y-81450000D02*
X115307500Y-82750000D01*
X114732500Y-82750000D01*
X114732500Y-81450000D01*
X115307500Y-81450000D01*
X115307500Y-81450000D01*
G37*
G36*
X116467500Y-81450000D02*
X116467500Y-82750000D01*
X115892500Y-82750000D01*
X115892500Y-81450000D01*
X116467500Y-81450000D01*
X116467500Y-81450000D01*
G37*
D20*
X110000000Y-86000000D03*
X110000000Y-90500000D03*
X103500000Y-86000000D03*
X103500000Y-90500000D03*
D28*
X108200000Y-71225000D03*
X108200000Y-74175000D03*
D29*
X105600000Y-73850000D03*
X105600000Y-71550000D03*
D14*
X158200000Y-81800000D03*
X153200000Y-81800000D03*
X109700000Y-55900000D03*
X104700000Y-55900000D03*
X118700000Y-59750000D03*
X113700000Y-59750000D03*
D30*
X167200000Y-98200000D03*
X164800000Y-98200000D03*
X175600000Y-89300000D03*
X173200000Y-89300000D03*
X168800000Y-93500000D03*
X166400000Y-93500000D03*
X168100000Y-95900000D03*
X165700000Y-95900000D03*
D31*
X148600000Y-93300000D03*
D32*
X140980000Y-93300000D03*
D16*
X111100000Y-69000000D03*
D17*
X111100000Y-71540000D03*
X111100000Y-74080000D03*
X111100000Y-76620000D03*
D16*
X117700000Y-63000000D03*
D17*
X120240000Y-63000000D03*
X122780000Y-63000000D03*
X125320000Y-63000000D03*
D14*
X128800000Y-62450000D03*
D15*
X128800000Y-72610000D03*
D14*
X142200000Y-99500000D03*
X147200000Y-99500000D03*
D29*
X148100000Y-82000000D03*
D15*
X148100000Y-71840000D03*
D33*
X105000000Y-43000000D03*
X179000000Y-43000000D03*
X137000000Y-96000000D03*
D30*
X145400000Y-74600000D03*
X143000000Y-74600000D03*
X145400000Y-71400000D03*
X143000000Y-71400000D03*
X145400000Y-78500000D03*
X143000000Y-78500000D03*
D34*
X106300000Y-100550000D03*
X106300000Y-98650000D03*
X110800000Y-100650000D03*
X110800000Y-98750000D03*
D35*
X171275000Y-59950000D03*
X178825000Y-59950000D03*
X160275000Y-52850000D03*
X152725000Y-52850000D03*
D29*
X175400000Y-64100000D03*
X173100000Y-64100000D03*
X158100000Y-48950000D03*
X160400000Y-48950000D03*
X151350000Y-63000000D03*
X149050000Y-63000000D03*
D31*
X163950000Y-50050000D03*
D32*
X163950000Y-57670000D03*
D35*
X152725000Y-66500000D03*
X160275000Y-66500000D03*
D16*
X180000000Y-103000000D03*
D17*
X177460000Y-103000000D03*
X174920000Y-103000000D03*
X172380000Y-103000000D03*
X169840000Y-103000000D03*
X167300000Y-103000000D03*
X164760000Y-103000000D03*
X162220000Y-103000000D03*
X159680000Y-103000000D03*
X157140000Y-103000000D03*
X154600000Y-103000000D03*
X152060000Y-103000000D03*
X149520000Y-103000000D03*
X146980000Y-103000000D03*
X144440000Y-103000000D03*
X141900000Y-103000000D03*
X139360000Y-103000000D03*
X136820000Y-103000000D03*
X134280000Y-103000000D03*
X131740000Y-103000000D03*
X129200000Y-103000000D03*
X126660000Y-103000000D03*
X124120000Y-103000000D03*
X121580000Y-103000000D03*
X119040000Y-103000000D03*
X116500000Y-103000000D03*
X113960000Y-103000000D03*
X111420000Y-103000000D03*
X108880000Y-103000000D03*
X106340000Y-103000000D03*
D36*
X146700000Y-43600000D03*
X146700000Y-46000000D03*
M02*
