M48
;DRILL file {KiCad 4.0.7} date 11/12/18 06:31:01
;FORMAT={-:-/ absolute / inch / decimal}
FMAT,2
INCH,TZ
T1C0.016
T2C0.028
T3C0.031
T4C0.035
T5C0.039
T6C0.039
T7C0.043
T8C0.047
T9C0.126
%
G90
G05
M72
T1
X4.0433Y-3.7343
X4.1024Y-2.4429
X4.122Y-4.0039
X4.1614Y-3.7343
X4.2087Y-3.6457
X4.2756Y-3.7362
X4.3071Y-2.2972
X4.3268Y-1.6181
X4.3386Y-4.0157
X4.3543Y-2.0984
X4.3563Y-2.4272
X4.3563Y-2.5768
X4.3819Y-2.2835
X4.4469Y-3.8917
X4.4724Y-3.8386
X4.4882Y-2.9783
X4.5197Y-2.5768
X4.5591Y-3.939
X4.6024Y-2.3622
X4.6339Y-2.9843
X4.6437Y-2.7028
X4.6476Y-3.9941
X4.6614Y-3.6496
X4.6713Y-2.2421
X4.6752Y-1.626
X4.6752Y-3.9075
X4.6949Y-2.122
X4.752Y-2.3681
X4.752Y-3.9075
X4.7756Y-2.7874
X4.7756Y-2.9331
X4.7933Y-1.8031
X4.7953Y-1.6614
X4.8012Y-3.9075
X4.811Y-2.0591
X4.815Y-2.626
X4.8189Y-3.0177
X4.8386Y-2.7028
X4.8543Y-3.9075
X4.872Y-3.7283
X4.8819Y-3.7776
X4.8917Y-3.2303
X4.9055Y-3.9075
X4.9311Y-3.8268
X4.9429Y-2.9134
X4.9469Y-3.6437
X4.9508Y-3.9154
X4.9685Y-1.8031
X4.9724Y-1.6614
X4.9783Y-3.6201
X5.002Y-2.628
X5.0059Y-3.5787
X5.0059Y-3.9075
X5.0118Y-2.6831
X5.0433Y-2.2717
X5.061Y-3.1555
X5.0669Y-2.3799
X5.0807Y-2.7224
X5.0827Y-2.0374
X5.0965Y-2.1437
X5.0965Y-2.248
X5.1004Y-2.628
X5.1122Y-3.0118
X5.1142Y-3.6791
X5.1476Y-1.8012
X5.1496Y-1.6614
X5.1713Y-3.8799
X5.1811Y-2.0335
X5.187Y-3.6457
X5.189Y-2.248
X5.2126Y-2.1654
X5.2303Y-2.628
X5.25Y-3.0118
X5.25Y-3.1555
X5.2756Y-2.502
X5.2795Y-2.0354
X5.2835Y-2.315
X5.2835Y-2.3858
X5.2972Y-3.2894
X5.3031Y-2.4567
X5.3091Y-2.7697
X5.3091Y-2.8898
X5.3169Y-1.6614
X5.3169Y-1.8012
X5.3563Y-1.8504
X5.3583Y-3.9528
X5.3681Y-2.3051
X5.372Y-2.5118
X5.3819Y-3.1555
X5.4016Y-2.6496
X5.4016Y-3.0118
X5.4154Y-3.2894
X5.4213Y-2.3858
X5.4213Y-2.4803
X5.5Y-2.8661
X5.5374Y-2.2185
X5.5591Y-3.2323
X5.5827Y-1.8327
X5.5945Y-2.2913
X5.6102Y-3.0118
X5.6201Y-2.4173
X5.6201Y-2.5394
X5.6201Y-2.6142
X5.6201Y-2.6949
X5.685Y-1.8524
X5.7146Y-2.1732
X5.7362Y-2.4055
X5.7402Y-2.3346
X5.7539Y-2.6299
X5.7579Y-3.2953
X5.7874Y-3.7835
X5.7913Y-2.5236
X5.8228Y-2.6457
X5.8524Y-2.3642
X5.8583Y-2.0807
X5.8642Y-1.8524
X5.9055Y-2.9508
X5.9862Y-3.8307
X6.0315Y-1.8898
X6.0354Y-3.0807
X6.0787Y-2.4961
X6.0866Y-3.8583
X6.0886Y-2.1929
X6.1004Y-2.3543
X6.122Y-1.8524
X6.126Y-2.4587
X6.1378Y-3.9823
X6.1496Y-3.1299
X6.1752Y-3.5807
X6.189Y-3.8917
X6.1929Y-1.7126
X6.2028Y-2.0728
X6.2264Y-2.4961
X6.2362Y-3.9823
X6.2421Y-2.7677
X6.2598Y-2.8563
X6.2913Y-3.9409
X6.311Y-1.9941
X6.3366Y-4.0079
X6.3563Y-2.2126
X6.3563Y-2.3563
X6.3681Y-1.7106
X6.3898Y-3.937
X6.439Y-3.9272
X6.4508Y-2.5217
X6.4567Y-2.1496
X6.502Y-2.7421
X6.5118Y-3.0433
X6.5138Y-2.3701
X6.5138Y-3.1024
X6.5197Y-2.9803
X6.5335Y-2.439
X6.5394Y-1.7657
X6.5394Y-3.9488
X6.5827Y-2.565
X6.5827Y-3.1949
X6.5886Y-1.6339
X6.6004Y-3.5945
X6.6299Y-1.7323
X6.6476Y-3.2539
X6.6516Y-1.937
X6.6516Y-2.1043
X6.6516Y-2.2283
X6.6516Y-2.7421
X6.6535Y-2.9154
X6.7165Y-2.4646
X6.7362Y-2.624
X6.7756Y-2.9193
X6.8012Y-2.1043
X6.8012Y-2.2283
X6.8031Y-1.937
X6.8287Y-1.6654
X6.8514Y-3.3632
X6.8937Y-3.622
X6.9055Y-2.2205
X6.9055Y-2.3642
X6.9055Y-2.6791
X6.9173Y-3.1732
X6.9193Y-3.9409
X6.9469Y-2.1043
X6.9764Y-3.7638
X6.9764Y-3.8543
X6.9843Y-3.7126
X7.0039Y-3.5591
X7.0394Y-2.811
X7.0394Y-2.9882
T2
X5.5504Y-3.6732
X5.8504Y-3.6732
X6.4547Y-1.9705
X6.4547Y-2.2705
T3
X4.122Y-2.2008
X4.3189Y-2.2008
X4.4764Y-2.3524
X4.6732Y-2.3524
X4.9232Y-2.6319
X4.9232Y-3.0319
X5.0709Y-2.4587
X5.0709Y-2.8587
X5.5984Y-3.9173
X5.7953Y-3.9173
X5.8307Y-2.8283
X5.8307Y-3.2283
X6.0315Y-3.2205
X6.2283Y-3.2205
T4
X4.4488Y-1.6043
X4.4488Y-1.8012
X4.6457Y-1.7028
T5
X4.1866Y-4.0551
X4.2866Y-4.0551
X4.374Y-2.7165
X4.374Y-2.8165
X4.374Y-2.9165
X4.374Y-3.0165
X4.3866Y-4.0551
X4.4866Y-4.0551
X4.5866Y-4.0551
X4.6339Y-2.4803
X4.6866Y-4.0551
X4.7339Y-2.4803
X4.7866Y-4.0551
X4.8339Y-2.4803
X4.8866Y-4.0551
X4.9339Y-2.4803
X4.9866Y-4.0551
X5.0866Y-4.0551
X5.1866Y-4.0551
X5.2866Y-4.0551
X5.3866Y-4.0551
X5.4299Y-1.652
X5.4299Y-1.752
X5.4866Y-4.0551
X5.5299Y-1.652
X5.5299Y-1.752
X5.5866Y-4.0551
X5.6299Y-1.652
X5.6299Y-1.752
X5.6866Y-4.0551
X5.7866Y-4.0551
X5.8866Y-4.0551
X5.9866Y-4.0551
X6.0866Y-4.0551
X6.1866Y-4.0551
X6.2866Y-4.0551
X6.3866Y-4.0551
X6.4866Y-4.0551
X6.5866Y-4.0551
X6.6866Y-4.0551
X6.7866Y-4.0551
X6.8866Y-4.0551
X6.9866Y-4.0551
X7.0866Y-4.0551
T6
X4.3543Y-3.2323
X4.7481Y-3.2323
X5.874Y-2.2795
X6.2678Y-2.2795
X6.3858Y-2.8031
X6.3858Y-3.1969
T7
X4.0748Y-3.3858
X4.0748Y-3.563
X4.3307Y-3.3858
X4.3307Y-3.563
X4.4685Y-3.3858
X4.4685Y-3.563
X4.7244Y-3.3858
X4.7244Y-3.563
X4.8622Y-3.3858
X4.8622Y-3.563
X5.1181Y-3.3858
X5.1181Y-3.563
X5.2559Y-3.3858
X5.2559Y-3.563
X5.5118Y-3.3858
X5.5118Y-3.563
X5.6496Y-3.3858
X5.6496Y-3.563
X5.9055Y-3.3858
X5.9055Y-3.563
X6.0433Y-3.3858
X6.0433Y-3.563
X6.2992Y-3.3858
X6.2992Y-3.563
X6.437Y-3.3858
X6.437Y-3.563
X6.6929Y-3.3858
X6.6929Y-3.563
T8
X4.3307Y-1.9685
X4.4307Y-1.9685
X4.5307Y-1.9685
X4.6307Y-1.9685
X4.7307Y-1.9685
X4.8307Y-1.9685
X4.9307Y-1.9685
X5.0307Y-1.9685
X5.1307Y-1.9685
X5.2307Y-1.9685
X5.3307Y-1.9685
X5.4307Y-1.9685
X5.5307Y-1.9685
X5.6307Y-1.9685
X5.7307Y-1.9685
X5.8307Y-1.9685
T9
X4.1142Y-1.9685
X4.1142Y-3.189
X4.1339Y-1.6929
X5.3937Y-3.7795
X7.0472Y-1.6929
X7.0669Y-3.189
X7.0669Y-1.9685
T0
M30
